<mxfile host="app.diagrams.net" agent="Mozilla/5.0 (Windows NT 10.0; Win64; x64) AppleWebKit/537.36 (KHTML, like Gecko) Chrome/137.0.0.0 Safari/537.36 Edg/137.0.0.0" version="27.1.5">
  <diagram id="C5RBs43oDa-KdzZeNtuy" name="Page-1">
    <mxGraphModel dx="1367" dy="2094" grid="1" gridSize="10" guides="1" tooltips="1" connect="1" arrows="1" fold="1" page="1" pageScale="1" pageWidth="827" pageHeight="1169" math="0" shadow="0">
      <root>
        <mxCell id="WIyWlLk6GJQsqaUBKTNV-0" />
        <mxCell id="WIyWlLk6GJQsqaUBKTNV-1" parent="WIyWlLk6GJQsqaUBKTNV-0" />
        <mxCell id="WIyWlLk6GJQsqaUBKTNV-2" value="" style="rounded=0;html=1;jettySize=auto;orthogonalLoop=1;fontSize=11;endArrow=block;endFill=0;endSize=8;strokeWidth=1;shadow=0;labelBackgroundColor=none;edgeStyle=orthogonalEdgeStyle;" parent="WIyWlLk6GJQsqaUBKTNV-1" source="WIyWlLk6GJQsqaUBKTNV-3" target="WIyWlLk6GJQsqaUBKTNV-6" edge="1">
          <mxGeometry relative="1" as="geometry" />
        </mxCell>
        <mxCell id="WIyWlLk6GJQsqaUBKTNV-3" value="Zombie State" style="rounded=1;whiteSpace=wrap;html=1;fontSize=12;glass=0;strokeWidth=1;shadow=0;" parent="WIyWlLk6GJQsqaUBKTNV-1" vertex="1">
          <mxGeometry x="60" y="-380" width="120" height="40" as="geometry" />
        </mxCell>
        <mxCell id="WIyWlLk6GJQsqaUBKTNV-4" value="Yes" style="rounded=0;html=1;jettySize=auto;orthogonalLoop=1;fontSize=11;endArrow=block;endFill=0;endSize=8;strokeWidth=1;shadow=0;labelBackgroundColor=none;edgeStyle=orthogonalEdgeStyle;" parent="WIyWlLk6GJQsqaUBKTNV-1" source="WIyWlLk6GJQsqaUBKTNV-6" target="WIyWlLk6GJQsqaUBKTNV-10" edge="1">
          <mxGeometry y="20" relative="1" as="geometry">
            <mxPoint as="offset" />
          </mxGeometry>
        </mxCell>
        <mxCell id="WIyWlLk6GJQsqaUBKTNV-5" value="No" style="edgeStyle=orthogonalEdgeStyle;rounded=0;html=1;jettySize=auto;orthogonalLoop=1;fontSize=11;endArrow=block;endFill=0;endSize=8;strokeWidth=1;shadow=0;labelBackgroundColor=none;" parent="WIyWlLk6GJQsqaUBKTNV-1" source="WIyWlLk6GJQsqaUBKTNV-6" target="WIyWlLk6GJQsqaUBKTNV-7" edge="1">
          <mxGeometry y="10" relative="1" as="geometry">
            <mxPoint as="offset" />
          </mxGeometry>
        </mxCell>
        <mxCell id="WIyWlLk6GJQsqaUBKTNV-6" value="Is player visible?" style="rhombus;whiteSpace=wrap;html=1;shadow=0;fontFamily=Helvetica;fontSize=12;align=center;strokeWidth=1;spacing=6;spacingTop=-4;" parent="WIyWlLk6GJQsqaUBKTNV-1" vertex="1">
          <mxGeometry x="40" y="-290" width="140" height="80" as="geometry" />
        </mxCell>
        <mxCell id="QMvKMj2MhDEd0DW6QR-A-3" value="" style="edgeStyle=orthogonalEdgeStyle;rounded=0;orthogonalLoop=1;jettySize=auto;html=1;" edge="1" parent="WIyWlLk6GJQsqaUBKTNV-1" source="WIyWlLk6GJQsqaUBKTNV-7" target="QMvKMj2MhDEd0DW6QR-A-2">
          <mxGeometry relative="1" as="geometry" />
        </mxCell>
        <mxCell id="WIyWlLk6GJQsqaUBKTNV-7" value="Patrol" style="rounded=1;whiteSpace=wrap;html=1;fontSize=12;glass=0;strokeWidth=1;shadow=0;" parent="WIyWlLk6GJQsqaUBKTNV-1" vertex="1">
          <mxGeometry x="220" y="-270" width="120" height="40" as="geometry" />
        </mxCell>
        <mxCell id="WIyWlLk6GJQsqaUBKTNV-9" value="" style="edgeStyle=orthogonalEdgeStyle;rounded=0;html=1;jettySize=auto;orthogonalLoop=1;fontSize=11;endArrow=block;endFill=0;endSize=8;strokeWidth=1;shadow=0;labelBackgroundColor=none;" parent="WIyWlLk6GJQsqaUBKTNV-1" source="WIyWlLk6GJQsqaUBKTNV-10" target="WIyWlLk6GJQsqaUBKTNV-12" edge="1">
          <mxGeometry y="10" relative="1" as="geometry">
            <mxPoint as="offset" />
          </mxGeometry>
        </mxCell>
        <mxCell id="WIyWlLk6GJQsqaUBKTNV-10" value="Generate path" style="rhombus;whiteSpace=wrap;html=1;shadow=0;fontFamily=Helvetica;fontSize=12;align=center;strokeWidth=1;spacing=6;spacingTop=-4;" parent="WIyWlLk6GJQsqaUBKTNV-1" vertex="1">
          <mxGeometry x="60" y="-160" width="100" height="80" as="geometry" />
        </mxCell>
        <mxCell id="QMvKMj2MhDEd0DW6QR-A-7" value="" style="edgeStyle=orthogonalEdgeStyle;rounded=0;orthogonalLoop=1;jettySize=auto;html=1;" edge="1" parent="WIyWlLk6GJQsqaUBKTNV-1" source="WIyWlLk6GJQsqaUBKTNV-12" target="QMvKMj2MhDEd0DW6QR-A-6">
          <mxGeometry relative="1" as="geometry" />
        </mxCell>
        <mxCell id="WIyWlLk6GJQsqaUBKTNV-12" value="Chase" style="rounded=1;whiteSpace=wrap;html=1;fontSize=12;glass=0;strokeWidth=1;shadow=0;" parent="WIyWlLk6GJQsqaUBKTNV-1" vertex="1">
          <mxGeometry x="270" y="-140" width="120" height="40" as="geometry" />
        </mxCell>
        <mxCell id="QMvKMj2MhDEd0DW6QR-A-2" value="handle_patrol_behaviour" style="whiteSpace=wrap;html=1;rounded=1;glass=0;strokeWidth=1;shadow=0;" vertex="1" parent="WIyWlLk6GJQsqaUBKTNV-1">
          <mxGeometry x="420" y="-280" width="160" height="60" as="geometry" />
        </mxCell>
        <mxCell id="QMvKMj2MhDEd0DW6QR-A-4" value="handle_chase_behaviour" style="whiteSpace=wrap;html=1;rounded=1;glass=0;strokeWidth=1;shadow=0;" vertex="1" parent="WIyWlLk6GJQsqaUBKTNV-1">
          <mxGeometry x="440" y="-150" width="150" height="60" as="geometry" />
        </mxCell>
        <mxCell id="QMvKMj2MhDEd0DW6QR-A-11" value="" style="edgeStyle=orthogonalEdgeStyle;rounded=0;orthogonalLoop=1;jettySize=auto;html=1;" edge="1" parent="WIyWlLk6GJQsqaUBKTNV-1" source="QMvKMj2MhDEd0DW6QR-A-6" target="QMvKMj2MhDEd0DW6QR-A-10">
          <mxGeometry relative="1" as="geometry" />
        </mxCell>
        <mxCell id="QMvKMj2MhDEd0DW6QR-A-6" value="Distance between them &amp;lt; 100" style="rhombus;whiteSpace=wrap;html=1;rounded=1;glass=0;strokeWidth=1;shadow=0;" vertex="1" parent="WIyWlLk6GJQsqaUBKTNV-1">
          <mxGeometry x="270" y="-40" width="120" height="80" as="geometry" />
        </mxCell>
        <mxCell id="QMvKMj2MhDEd0DW6QR-A-8" style="edgeStyle=orthogonalEdgeStyle;rounded=0;orthogonalLoop=1;jettySize=auto;html=1;entryX=0.433;entryY=0.983;entryDx=0;entryDy=0;entryPerimeter=0;" edge="1" parent="WIyWlLk6GJQsqaUBKTNV-1" source="QMvKMj2MhDEd0DW6QR-A-6" target="QMvKMj2MhDEd0DW6QR-A-4">
          <mxGeometry relative="1" as="geometry" />
        </mxCell>
        <mxCell id="QMvKMj2MhDEd0DW6QR-A-9" value="No" style="text;html=1;align=center;verticalAlign=middle;whiteSpace=wrap;rounded=0;" vertex="1" parent="WIyWlLk6GJQsqaUBKTNV-1">
          <mxGeometry x="410" y="-30" width="60" height="30" as="geometry" />
        </mxCell>
        <mxCell id="QMvKMj2MhDEd0DW6QR-A-13" value="" style="edgeStyle=orthogonalEdgeStyle;rounded=0;orthogonalLoop=1;jettySize=auto;html=1;" edge="1" parent="WIyWlLk6GJQsqaUBKTNV-1" source="QMvKMj2MhDEd0DW6QR-A-10" target="QMvKMj2MhDEd0DW6QR-A-12">
          <mxGeometry relative="1" as="geometry" />
        </mxCell>
        <mxCell id="QMvKMj2MhDEd0DW6QR-A-10" value="Attack" style="whiteSpace=wrap;html=1;rounded=1;glass=0;strokeWidth=1;shadow=0;direction=west;" vertex="1" parent="WIyWlLk6GJQsqaUBKTNV-1">
          <mxGeometry x="270" y="95" width="120" height="60" as="geometry" />
        </mxCell>
        <mxCell id="QMvKMj2MhDEd0DW6QR-A-12" value="handle_attack_behaviour" style="whiteSpace=wrap;html=1;rounded=1;glass=0;strokeWidth=1;shadow=0;" vertex="1" parent="WIyWlLk6GJQsqaUBKTNV-1">
          <mxGeometry x="430" y="95" width="150" height="60" as="geometry" />
        </mxCell>
        <mxCell id="QMvKMj2MhDEd0DW6QR-A-15" value="Yes" style="text;html=1;align=center;verticalAlign=middle;whiteSpace=wrap;rounded=0;" vertex="1" parent="WIyWlLk6GJQsqaUBKTNV-1">
          <mxGeometry x="330" y="50" width="60" height="30" as="geometry" />
        </mxCell>
        <mxCell id="QMvKMj2MhDEd0DW6QR-A-16" value="Player State" style="rounded=1;whiteSpace=wrap;html=1;" vertex="1" parent="WIyWlLk6GJQsqaUBKTNV-1">
          <mxGeometry x="30" y="350" width="120" height="60" as="geometry" />
        </mxCell>
        <mxCell id="QMvKMj2MhDEd0DW6QR-A-18" style="edgeStyle=orthogonalEdgeStyle;rounded=0;orthogonalLoop=1;jettySize=auto;html=1;entryX=0.5;entryY=1;entryDx=0;entryDy=0;" edge="1" parent="WIyWlLk6GJQsqaUBKTNV-1" source="QMvKMj2MhDEd0DW6QR-A-17" target="QMvKMj2MhDEd0DW6QR-A-16">
          <mxGeometry relative="1" as="geometry" />
        </mxCell>
        <mxCell id="QMvKMj2MhDEd0DW6QR-A-20" value="" style="edgeStyle=orthogonalEdgeStyle;rounded=0;orthogonalLoop=1;jettySize=auto;html=1;" edge="1" parent="WIyWlLk6GJQsqaUBKTNV-1" source="QMvKMj2MhDEd0DW6QR-A-17" target="QMvKMj2MhDEd0DW6QR-A-19">
          <mxGeometry relative="1" as="geometry" />
        </mxCell>
        <mxCell id="QMvKMj2MhDEd0DW6QR-A-25" value="" style="edgeStyle=orthogonalEdgeStyle;rounded=0;orthogonalLoop=1;jettySize=auto;html=1;" edge="1" parent="WIyWlLk6GJQsqaUBKTNV-1" source="QMvKMj2MhDEd0DW6QR-A-17" target="QMvKMj2MhDEd0DW6QR-A-24">
          <mxGeometry relative="1" as="geometry" />
        </mxCell>
        <mxCell id="QMvKMj2MhDEd0DW6QR-A-17" value="Any zombie nearby?&amp;nbsp;&lt;div&gt;Is it under 50unit?&lt;/div&gt;" style="rhombus;whiteSpace=wrap;html=1;" vertex="1" parent="WIyWlLk6GJQsqaUBKTNV-1">
          <mxGeometry x="10" y="460" width="160" height="115" as="geometry" />
        </mxCell>
        <mxCell id="QMvKMj2MhDEd0DW6QR-A-22" value="" style="edgeStyle=orthogonalEdgeStyle;rounded=0;orthogonalLoop=1;jettySize=auto;html=1;" edge="1" parent="WIyWlLk6GJQsqaUBKTNV-1" source="QMvKMj2MhDEd0DW6QR-A-19" target="QMvKMj2MhDEd0DW6QR-A-21">
          <mxGeometry relative="1" as="geometry" />
        </mxCell>
        <mxCell id="QMvKMj2MhDEd0DW6QR-A-19" value="Attack" style="whiteSpace=wrap;html=1;" vertex="1" parent="WIyWlLk6GJQsqaUBKTNV-1">
          <mxGeometry x="270" y="491.25" width="60" height="52.5" as="geometry" />
        </mxCell>
        <mxCell id="QMvKMj2MhDEd0DW6QR-A-21" value="handle_attack_behaviour" style="whiteSpace=wrap;html=1;" vertex="1" parent="WIyWlLk6GJQsqaUBKTNV-1">
          <mxGeometry x="410" y="491.25" width="150" height="52.5" as="geometry" />
        </mxCell>
        <mxCell id="QMvKMj2MhDEd0DW6QR-A-23" value="Yes" style="text;html=1;align=center;verticalAlign=middle;whiteSpace=wrap;rounded=0;" vertex="1" parent="WIyWlLk6GJQsqaUBKTNV-1">
          <mxGeometry x="190" y="480" width="60" height="30" as="geometry" />
        </mxCell>
        <mxCell id="QMvKMj2MhDEd0DW6QR-A-28" value="" style="edgeStyle=orthogonalEdgeStyle;rounded=0;orthogonalLoop=1;jettySize=auto;html=1;" edge="1" parent="WIyWlLk6GJQsqaUBKTNV-1" source="QMvKMj2MhDEd0DW6QR-A-24" target="QMvKMj2MhDEd0DW6QR-A-27">
          <mxGeometry relative="1" as="geometry" />
        </mxCell>
        <mxCell id="QMvKMj2MhDEd0DW6QR-A-33" value="" style="edgeStyle=orthogonalEdgeStyle;rounded=0;orthogonalLoop=1;jettySize=auto;html=1;" edge="1" parent="WIyWlLk6GJQsqaUBKTNV-1" source="QMvKMj2MhDEd0DW6QR-A-24" target="QMvKMj2MhDEd0DW6QR-A-32">
          <mxGeometry relative="1" as="geometry" />
        </mxCell>
        <mxCell id="QMvKMj2MhDEd0DW6QR-A-24" value="Is health critically low? or low on ammo?" style="rhombus;whiteSpace=wrap;html=1;" vertex="1" parent="WIyWlLk6GJQsqaUBKTNV-1">
          <mxGeometry x="10" y="640" width="160" height="112.5" as="geometry" />
        </mxCell>
        <mxCell id="QMvKMj2MhDEd0DW6QR-A-26" value="No" style="text;html=1;align=center;verticalAlign=middle;whiteSpace=wrap;rounded=0;" vertex="1" parent="WIyWlLk6GJQsqaUBKTNV-1">
          <mxGeometry x="90" y="610" width="60" height="30" as="geometry" />
        </mxCell>
        <mxCell id="QMvKMj2MhDEd0DW6QR-A-30" value="" style="edgeStyle=orthogonalEdgeStyle;rounded=0;orthogonalLoop=1;jettySize=auto;html=1;" edge="1" parent="WIyWlLk6GJQsqaUBKTNV-1" source="QMvKMj2MhDEd0DW6QR-A-27" target="QMvKMj2MhDEd0DW6QR-A-29">
          <mxGeometry relative="1" as="geometry" />
        </mxCell>
        <mxCell id="QMvKMj2MhDEd0DW6QR-A-27" value="survival" style="whiteSpace=wrap;html=1;" vertex="1" parent="WIyWlLk6GJQsqaUBKTNV-1">
          <mxGeometry x="270" y="666.25" width="120" height="60" as="geometry" />
        </mxCell>
        <mxCell id="QMvKMj2MhDEd0DW6QR-A-29" value="Update_goal&lt;div&gt;follow_path&lt;/div&gt;" style="whiteSpace=wrap;html=1;" vertex="1" parent="WIyWlLk6GJQsqaUBKTNV-1">
          <mxGeometry x="470" y="666.25" width="120" height="60" as="geometry" />
        </mxCell>
        <mxCell id="QMvKMj2MhDEd0DW6QR-A-31" value="Yes" style="text;html=1;align=center;verticalAlign=middle;whiteSpace=wrap;rounded=0;" vertex="1" parent="WIyWlLk6GJQsqaUBKTNV-1">
          <mxGeometry x="180" y="660" width="60" height="30" as="geometry" />
        </mxCell>
        <mxCell id="QMvKMj2MhDEd0DW6QR-A-36" value="" style="edgeStyle=orthogonalEdgeStyle;rounded=0;orthogonalLoop=1;jettySize=auto;html=1;" edge="1" parent="WIyWlLk6GJQsqaUBKTNV-1" source="QMvKMj2MhDEd0DW6QR-A-32" target="QMvKMj2MhDEd0DW6QR-A-35">
          <mxGeometry relative="1" as="geometry" />
        </mxCell>
        <mxCell id="QMvKMj2MhDEd0DW6QR-A-32" value="objectives" style="whiteSpace=wrap;html=1;" vertex="1" parent="WIyWlLk6GJQsqaUBKTNV-1">
          <mxGeometry x="30" y="810" width="120" height="60" as="geometry" />
        </mxCell>
        <mxCell id="QMvKMj2MhDEd0DW6QR-A-34" value="No" style="text;html=1;align=center;verticalAlign=middle;whiteSpace=wrap;rounded=0;" vertex="1" parent="WIyWlLk6GJQsqaUBKTNV-1">
          <mxGeometry x="90" y="760" width="60" height="30" as="geometry" />
        </mxCell>
        <mxCell id="QMvKMj2MhDEd0DW6QR-A-35" value="update_goal&lt;div&gt;follow_path&lt;/div&gt;" style="whiteSpace=wrap;html=1;" vertex="1" parent="WIyWlLk6GJQsqaUBKTNV-1">
          <mxGeometry x="230" y="810" width="120" height="60" as="geometry" />
        </mxCell>
      </root>
    </mxGraphModel>
  </diagram>
</mxfile>
